HIERARCHY
ROOT Pelvis
{
	OFFSET 0.000000 0.000000 0.000000
	CHANNELS 6 Xposition Yposition Zposition Zrotation Yrotation Xrotation 
	JOINT Left_hip
	{
		OFFSET 0.068973 -0.091024 -0.007589
		CHANNELS 3 Zrotation Yrotation Xrotation
		JOINT Left_knee
		{
			OFFSET 0.036482 -0.391037 -0.003979
			CHANNELS 3 Zrotation Yrotation Xrotation
			JOINT Left_ankle
			{
				OFFSET -0.012239 -0.415469 -0.043440
				CHANNELS 3 Zrotation Yrotation Xrotation
				JOINT Left_foot
				{
					OFFSET 0.023806 -0.058558 0.118702
					CHANNELS 3 Zrotation Yrotation Xrotation
					End Site
					{
						OFFSET 0.000000 0.000000 0.000000
					}
				}
			}
		}
	}
	JOINT Right_hip
	{
		OFFSET -0.066552 -0.090468 -0.003847
		CHANNELS 3 Zrotation Yrotation Xrotation
		JOINT Right_knee
		{
			OFFSET -0.042435 -0.398340 -0.006400
			CHANNELS 3 Zrotation Yrotation Xrotation
			JOINT Right_ankle
			{
				OFFSET 0.014931 -0.415421 -0.041327
				CHANNELS 3 Zrotation Yrotation Xrotation
				JOINT Right_foot
				{
					OFFSET -0.021472 -0.049410 0.121889
					CHANNELS 3 Zrotation Yrotation Xrotation
					End Site
					{
						OFFSET 0.000000 0.000000 0.000000
					}
				}
			}
		}
	}
	JOINT Spine1
	{
		OFFSET -0.002904 0.105700 -0.022855
		CHANNELS 3 Zrotation Yrotation Xrotation
		JOINT Spine2
		{
			OFFSET 0.004179 0.132554 -0.002501
			CHANNELS 3 Zrotation Yrotation Xrotation
			JOINT Spine3
			{
				OFFSET 0.001987 0.049603 0.025988
				CHANNELS 3 Zrotation Yrotation Xrotation
				JOINT Neck
				{
					OFFSET -0.003935 0.211336 -0.045638
					CHANNELS 3 Zrotation Yrotation Xrotation
					JOINT Head
					{
						OFFSET 0.003906 0.065991 0.051018
						CHANNELS 3 Zrotation Yrotation Xrotation
						End Site
						{
							OFFSET 0.000000 0.000000 0.000000
						}
					}
				}
				JOINT Left_collar
				{
					OFFSET 0.072882 0.117751 -0.036270
					CHANNELS 3 Zrotation Yrotation Xrotation
					JOINT Left_shoulder
					{
						OFFSET 0.082118 0.032630 -0.005771
						CHANNELS 3 Zrotation Yrotation Xrotation
						JOINT Left_elbow
						{
							OFFSET 0.263305 -0.015144 -0.028095
							CHANNELS 3 Zrotation Yrotation Xrotation
							JOINT Left_wrist
							{
								OFFSET 0.250741 0.010115 -0.000759
								CHANNELS 3 Zrotation Yrotation Xrotation
								JOINT Left_palm
								{
									OFFSET 0.080683 -0.009989 -0.013613
									CHANNELS 3 Zrotation Yrotation Xrotation
									End Site
									{
										OFFSET 0.000000 0.000000 0.000000
									}
								}
							}
						}
					}
				}
				JOINT Right_collar
				{
					OFFSET -0.074811 0.116132 -0.040385
					CHANNELS 3 Zrotation Yrotation Xrotation
					JOINT Right_shoulder
					{
						OFFSET -0.085089 0.032943 -0.007484
						CHANNELS 3 Zrotation Yrotation Xrotation
						JOINT Right_elbow
						{
							OFFSET -0.254763 -0.014219 -0.020321
							CHANNELS 3 Zrotation Yrotation Xrotation
							JOINT Right_wrist
							{
								OFFSET -0.256597 0.009233 -0.005063
								CHANNELS 3 Zrotation Yrotation Xrotation
								JOINT Right_palm
								{
									OFFSET -0.080528 -0.007219 -0.010379
									CHANNELS 3 Zrotation Yrotation Xrotation
									End Site
									{
										OFFSET 0.000000 0.000000 0.000000
									}
								}
							}
						}
					}
				}
			}
		}
	}
}
MOTION
Frames: 6
Frame Time: 0.100000
0.000000 0.000000 0.000000 176.179885 10.818678 -17.499408 9.064745 7.691769 12.053208 -3.316731 5.678639 -1.210804 -4.206308 9.579968 -0.675300 4.413476 7.457479 -4.343584 -6.390287 -3.118221 11.290003 3.122843 -1.112929 -4.934521 4.913630 -3.084888 2.939722 -0.236264 -4.979492 4.033686 1.036358 -0.144499 -1.474376 2.198970 -3.652925 10.740381 0.640525 -2.143568 -0.342671 5.178857 -7.634688 11.780712 3.668435 -12.194994 1.506990 -25.390174 -2.602888 10.044733 -51.923086 -4.443119 12.815243 1.941830 -26.397760 16.988117 -9.260945 -12.338972 9.649235 -7.638081 -1.009653 -19.559644 22.720437 9.076501 7.379509 49.733307 4.818244 13.832265 -6.517432 21.821460 6.431234 3.388053 6.271781 3.261343 6.808743 2.573771 -7.479223 
-0.015147 0.002915 -0.013823 176.316449 8.297857 -17.409495 8.123968 8.333068 13.058052 -3.672362 6.021729 -3.176702 -3.191114 9.952267 -1.246927 3.916053 8.226020 -3.581483 -6.645440 -2.613832 7.858481 2.201206 -0.778004 -0.888411 6.104482 -2.980440 2.957292 -1.915889 -4.076934 3.326178 0.342311 -1.153665 -0.096595 2.790168 -4.340646 11.563386 0.763405 -2.865693 -0.070561 5.350857 -9.588342 12.137172 4.196947 -14.515301 1.054494 -24.659607 -2.863432 10.141689 -50.866553 -4.055172 12.907664 0.941308 -27.912108 17.066274 -9.411697 -11.434542 10.526191 -8.240543 -1.641000 -20.212399 22.567463 8.635861 5.924399 49.550596 4.773711 13.463399 -8.123719 25.964124 4.686916 3.306718 6.335299 3.794166 7.633951 2.788219 -8.173915 
-0.023796 0.006851 -0.027432 176.504517 5.401434 -16.882533 7.183152 9.110517 13.528082 -3.669693 5.718863 -5.321572 -1.777218 11.145456 -1.175047 3.136733 8.866475 -3.735140 -6.114100 -1.734124 0.961519 1.028447 -0.494471 8.161548 6.686385 -3.531205 2.483499 -3.104334 -2.878396 2.328442 -1.398983 -2.355487 1.144201 2.772700 -4.377605 11.637668 0.503415 -3.200974 -0.360004 5.645818 -10.296561 12.562546 4.986752 -15.220683 1.516052 -22.744113 -2.817220 9.068135 -49.481501 -4.074601 13.232872 2.038063 -25.534533 14.126800 -9.963024 -10.490684 12.026723 -8.925504 -2.665924 -20.169088 22.397705 8.116646 4.833963 52.152677 3.371548 14.792075 -8.274388 27.828037 4.846432 3.898438 6.754250 3.596926 8.776036 3.281462 -7.910565 
-0.025250 0.006965 -0.031672 175.796583 3.256018 -16.545820 7.334676 9.355247 15.031452 -3.195888 4.715624 -8.815139 -0.468795 12.598186 -0.115402 2.053248 9.209485 -3.668931 -4.954235 -0.483828 -5.412393 1.196320 -1.271408 17.387930 5.753977 -4.461811 3.121338 -1.703389 -2.307016 1.920389 -3.414725 -3.552675 1.232447 2.587423 -4.053952 12.407240 -0.009667 -3.401043 -1.394787 6.488554 -10.746723 13.220171 5.854484 -15.614261 2.734142 -22.182129 -2.446849 7.454281 -46.307956 -5.276642 13.154397 4.293180 -19.632879 8.632870 -10.601697 -9.794766 13.868094 -8.968958 -3.377355 -19.353733 23.804314 7.190962 4.425235 54.141174 0.908327 16.697903 -7.273517 25.612106 6.233271 4.817942 6.964496 4.120799 9.490001 3.794132 -6.629921 
-0.024195 0.003655 -0.028128 174.641080 2.879256 -16.664041 8.544503 9.664981 15.231620 -2.794702 4.394628 -8.719883 -0.266049 13.165693 0.185105 1.332653 8.825564 -3.724904 -3.762882 -1.033651 -7.983179 1.777848 -3.505968 20.436271 4.121189 -5.609250 2.443796 0.066355 -2.367872 2.497003 -4.484595 -3.788805 1.376260 2.264967 -3.911400 12.596066 -0.283286 -3.581701 -2.102439 6.871413 -11.486874 14.081954 6.796622 -16.287999 3.356545 -21.913093 -2.809046 6.260446 -43.912635 -7.591988 12.501856 6.156077 -14.820532 3.822771 -10.315188 -9.618842 13.961068 -8.734809 -3.321457 -18.370888 24.531586 6.622248 4.985442 55.868975 -1.929159 17.122336 -6.375396 20.229037 6.385548 5.619068 6.908923 2.940991 9.264889 3.898743 -5.055571 
-0.020881 0.001041 -0.017518 174.365370 0.958861 -16.980150 9.803122 10.457537 16.699419 -2.718661 5.670058 -8.599363 -1.297691 13.705709 -0.026584 1.391782 7.744188 -3.390604 -2.547594 -3.246127 -6.851500 2.851240 -7.235767 12.104589 2.726671 -7.002709 2.765317 1.503803 -2.964160 3.943247 -4.429225 -3.073827 1.653099 1.661989 -2.868651 11.776429 -0.255836 -3.023496 -1.784108 7.044915 -12.204089 14.724636 7.500000 -16.984957 3.727970 -21.894042 -2.951537 6.011078 -43.384898 -9.830743 11.672859 7.010101 -14.993999 2.152872 -9.513961 -11.019305 12.517432 -7.592388 -2.051903 -17.956250 23.968158 7.004718 6.497638 56.573831 -3.213160 16.832266 -5.011180 15.228368 7.408242 6.038332 6.903488 1.677142 7.365695 3.281401 -3.933728 
